<?xml version="1.0" encoding="UTF-8"?>
<svg width="26px" height="33px" viewBox="0 0 26 33" version="1.1" xmlns="http://www.w3.org/2000/svg" xmlns:xlink="http://www.w3.org/1999/xlink">
    <title>poi-group</title>
    <defs>
        <path d="M4.70836806,14.1064246 C0.924565972,8.34676585 0.222222222,7.75564881 0.222222222,5.63888761 C0.222222222,2.73938441 2.46078993,0.388888889 5.22222222,0.388888889 C7.98365451,0.388888889 10.2222222,2.73938441 10.2222222,5.63888761 C10.2222222,7.75564881 9.51987847,8.34676585 5.73607639,14.1064246 C5.4877691,14.4830573 4.95664931,14.48303 4.70836806,14.1064246 Z" id="path-1"></path>
        <path d="M4.59725694,13.4953135 C0.813454861,7.73565474 0.111111111,7.1445377 0.111111111,5.0277765 C0.111111111,2.1282733 2.34967882,-0.222222222 5.11111111,-0.222222222 C7.8725434,-0.222222222 10.1111111,2.1282733 10.1111111,5.0277765 C10.1111111,7.1445377 9.40876736,7.73565474 5.62496528,13.4953135 C5.37665799,13.8719462 4.84553819,13.8719189 4.59725694,13.4953135 Z" id="path-3"></path>
        <path d="M4.59725694,13.7175357 C0.813454861,7.95787696 0.111111111,7.36675992 0.111111111,5.24999872 C0.111111111,2.35049552 2.34967882,0 5.11111111,0 C7.8725434,0 10.1111111,2.35049552 10.1111111,5.24999872 C10.1111111,7.36675992 9.40876736,7.95787696 5.62496528,13.7175357 C5.37665799,14.0941684 4.84553819,14.0941411 4.59725694,13.7175357 Z" id="path-5"></path>
        <path d="M4.48614583,14.1064246 C0.70234375,8.34676585 0,7.75564881 0,5.63888761 C0,2.73938441 2.23856771,0.388888889 5,0.388888889 C7.76143229,0.388888889 10,2.73938441 10,5.63888761 C10,7.75564881 9.29765625,8.34676585 5.51385417,14.1064246 C5.26554688,14.4830573 4.73442708,14.48303 4.48614583,14.1064246 Z" id="path-7"></path>
    </defs>
    <g id="Components" stroke="none" stroke-width="1" fill="none" fill-rule="evenodd">
        <g id="Paikkapisteet-Menu" transform="translate(-359.000000, -391.000000)">
            <g id="poi-group" transform="translate(360.000000, 392.000000)">
                <g id="Solid/search-Copy-10" transform="translate(13.777778, 8.611111)">
                    <mask id="mask-2" fill="white">
                        <use xlink:href="#path-1"></use>
                    </mask>
                    <use id="Mask" stroke="#FFFFFF" fill="#185617" fill-rule="nonzero" xlink:href="#path-1"></use>
                    <path d="M5.22222222,7.38888889 C6.32679722,7.38888889 7.22222222,6.49346389 7.22222222,5.38888889 C7.22222222,4.28431389 6.32679722,3.38888889 5.22222222,3.38888889 C4.11764722,3.38888889 3.22222222,4.28431389 3.22222222,5.38888889 C3.22222222,6.49346389 4.11764722,7.38888889 5.22222222,7.38888889 Z" id="Path" stroke="#FFFFFF" fill="#FFFFFF" fill-rule="nonzero" mask="url(#mask-2)"></path>
                </g>
                <g id="Solid/search-Copy-12" transform="translate(6.888889, 17.222222)">
                    <mask id="mask-4" fill="white">
                        <use xlink:href="#path-3"></use>
                    </mask>
                    <use id="Mask" stroke="#FFFFFF" fill="#185617" fill-rule="nonzero" xlink:href="#path-3"></use>
                    <path d="M5.11111111,6.77777778 C6.21568611,6.77777778 7.11111111,5.88235278 7.11111111,4.77777778 C7.11111111,3.67320278 6.21568611,2.77777778 5.11111111,2.77777778 C4.00653611,2.77777778 3.11111111,3.67320278 3.11111111,4.77777778 C3.11111111,5.88235278 4.00653611,6.77777778 5.11111111,6.77777778 Z" id="Path" stroke="#FFFFFF" fill="#FFFFFF" fill-rule="nonzero" mask="url(#mask-4)"></path>
                </g>
                <g id="Solid/search-Copy-13" transform="translate(6.888889, 0.000000)">
                    <mask id="mask-6" fill="white">
                        <use xlink:href="#path-5"></use>
                    </mask>
                    <use id="Mask" stroke="#FFFFFF" fill="#185617" fill-rule="nonzero" xlink:href="#path-5"></use>
                    <path d="M5.11111111,7 C6.21568611,7 7.11111111,6.104575 7.11111111,5 C7.11111111,3.895425 6.21568611,3 5.11111111,3 C4.00653611,3 3.11111111,3.895425 3.11111111,5 C3.11111111,6.104575 4.00653611,7 5.11111111,7 Z" id="Path" stroke="#FFFFFF" fill="#FFFFFF" fill-rule="nonzero" mask="url(#mask-6)"></path>
                </g>
                <g id="Solid/search-Copy-11" transform="translate(-0.000000, 8.611111)">
                    <mask id="mask-8" fill="white">
                        <use xlink:href="#path-7"></use>
                    </mask>
                    <use id="Mask" stroke="#FFFFFF" fill="#185617" fill-rule="nonzero" xlink:href="#path-7"></use>
                    <path d="M5,7.38888889 C6.104575,7.38888889 7,6.49346389 7,5.38888889 C7,4.28431389 6.104575,3.38888889 5,3.38888889 C3.895425,3.38888889 3,4.28431389 3,5.38888889 C3,6.49346389 3.895425,7.38888889 5,7.38888889 Z" id="Path" stroke="#FFFFFF" fill="#FFFFFF" fill-rule="nonzero" mask="url(#mask-8)"></path>
                </g>
            </g>
        </g>
    </g>
</svg>