<?xml version="1.0" encoding="UTF-8"?>
<svg width="27px" height="27px" viewBox="0 0 27 27" version="1.1" xmlns="http://www.w3.org/2000/svg" xmlns:xlink="http://www.w3.org/1999/xlink">
    <title>Poi-marker-off</title>
    <defs>
        <path d="M2.38446849,16.0299248 C0.476600175,13.1683557 0,11.8583825 0,9.57540199 C0,4.28703714 4.34419869,0 9.70307639,0 C12.2877316,0 14.6363464,0.99727464 16.3753545,2.62317289 M19.4061528,9.57540199 C19.4061528,13.4361343 18.0431738,14.5142647 10.7002696,25.0192287 C10.2184007,25.7061641 9.18770153,25.7061142 8.70588314,25.0192287 C7.95943597,23.9513405 7.27478449,22.9808679 6.64707863,22.0949848 M12.2393088,6.46813425 C11.5214853,5.94337486 10.6634956,5.58565116 9.70307639,5.58565116 C7.47020647,5.58565116 5.66012789,7.37191248 5.66012789,9.57540199 C5.66012789,10.5285064 5.96438513,11.4295575 6.56382257,12.0897424 C6.6414406,12.1752263 12.2505329,6.47636462 12.2393088,6.46813425 Z" id="path-1"></path>
    </defs>
    <g id="Components" stroke="none" stroke-width="1" fill="none" fill-rule="evenodd">
        <g id="Paikkapisteet-Menu" transform="translate(-512.000000, -339.000000)">
            <g id="Poi-marker-off" transform="translate(512.772078, 339.772078)">
                <g id="Solid/search-Copy-17" transform="translate(2.275547, 0.232794)">
                    <mask id="mask-2" fill="white">
                        <use xlink:href="#path-1"></use>
                    </mask>
                    <use id="Mask" fill="#919191" fill-rule="nonzero" xlink:href="#path-1"></use>
                </g>
                <path d="M-2.85271162,11.4679353 L28.8527116,11.4679353 C29.4049964,11.4679353 29.8527116,11.9156506 29.8527116,12.4679353 L29.8527116,13.5320647 C29.8527116,14.0843494 29.4049964,14.5320647 28.8527116,14.5320647 L-2.85271162,14.5320647 C-3.40499637,14.5320647 -3.85271162,14.0843494 -3.85271162,13.5320647 L-3.85271162,12.4679353 C-3.85271162,11.9156506 -3.40499637,11.4679353 -2.85271162,11.4679353 Z" id="Rectangle" fill="#919191" transform="translate(13.000000, 13.000000) rotate(-45.000000) translate(-13.000000, -13.000000) "></path>
            </g>
        </g>
    </g>
</svg>