<?xml version="1.0" encoding="UTF-8" standalone="no"?>
<svg xmlns="http://www.w3.org/2000/svg"
     viewBox="0 0 155 177"
     height="155"
     width="177"
     version="1.1">
    <g transform="matrix(1,0,0,-1,40,35)">
        <path style="fill:#fff;fill-opacity:1;fill-rule:nonzero;stroke:none"
              d="M 0,0 22,4.25 29,2 39.5,-6.375 41.125,-16.5 l -3.5,-3.25 -14.25,-3.5 -6.875,7.625 V -9.5 l 3,4 6,-1.625 1.75,-5.125 -5.75,3.375 -2.25,-3.25 2.625,-6.125 14.875,2.875 -0.375,7.25 L 27.625,-1.5 20.5,0 2.875,-5 l -34.5,-19.25 -4,-8.75 9.25,-4.625 20,0.625 14.125,8.5 3,-9 5.25,4 5.625,-9.75 8.875,2.5 6.25,-31.125 -1,-28.75 9,-27 -5.25,30.625 3.125,20.875 2.875,-2.125 6.75,-2.125 1.375,-20 4,-12.875 2.125,30.25 35,3.75 6.375,-0.375 4.75,-8.625 2.875,24.875 -1,10.25 -7.125,3.875 0.25,-8.25 -7.25,-8.625 L 82.25,-69.75 64,-69 45.875,-48.25 45.5,-41.5 l 9.75,5 28.875,-10.5 -1.5,-7.75 -3.875,-3.125 -10.5,0.375 6.75,1.375 4.125,6.625 -21.875,8.5 -8.75,-4.25 0.125,-3.5 14.625,-15.375 18.125,-2.125 14.75,8.625 -3,11.75 L 84.75,-41 70,-20.125 52.125,-22.75 49.375,-12.5 36.875,3 23.625,6.25 -15.75,21.125 v 1.75 L -10.875,22.25 14.25,12.75 9.125,33 l 3.5,2.375 4.75,-22.875 10.25,-5 -3.5,23.5 2.625,-0.25 4.25,-24 6.125,-0.875 1.75,23.625 3,-3 L 41,4.125 l 8.75,-3.5 0.625,21.75 2.875,1.625 -0.125,-24.125 10.625,2.75 2.625,15.125 3.25,2 L 66.875,-1 71.5,-1.875 103.25,18.75 103,14.5 80.125,-2.375 l 11.625,2.25 6.625,-3 -20.125,-4.5 -11.75,-0.125 -16.875,3.25 -1.75,-0.125 7.75,-9.625 16.25,-2.75 16.625,-21.875 24.25,-10.5 1,-14.75 -3.75,-29.75 -11.125,-45.5 -2.25,-0.25 3.125,53.75 H 98.5 l -6.375,-54.25 -4.5,0.375 -1.625,14 3.375,42 -26.125,-3.375 -1.5,-52.375 -5.875,0.25 -5.125,30.625 -1.25,23.25 -5.375,0.125 3.5,-40 0.25,-13.25 -6.125,1.5 -9.875,29.375 -0.125,32.875 -8,28 -4.5,0.625 -3.625,6 -9,-5.375 v 10.875 l -12.75,-6.125 -20,-0.125 -12.5,6.75 4,13.625 z"/>
    </g>
</svg>
