<svg version="1" xmlns="http://www.w3.org/2000/svg" width="944" height="944" viewBox="0 0 708.000000 708.000000"><path d="M259.8 47.3c-2.6 1.8-4.8 3.7-4.8 4.3 0 .6 1.1 5.6 2.5 11s2.8 11 3.1 12.2c.2 1.3 1.2 4.9 2 8 1.6 6.2 2.2 8.2 2.8 10.9.2 1 1.6 6.5 3.1 12.3 3.9 15.2 4.1 16.4 1.8 15.2-1-.5-9.9-4-19.8-7.6-9.9-3.7-18.9-7.1-20-7.6-1.1-.5-9.4-3.6-18.5-7-9.1-3.3-17.4-6.5-18.5-6.9-6.8-3-10-3.8-17.8-4.6-2.6-.3-5.1-.6-5.5-.6-2.2-.4-2.9.4-2.7 2.8.1 2.4.9 3.1 5.5 5 3 1.1 6.6 2.6 8 3.1 3.9 1.6 43 16.4 47.4 17.9 6.3 2.2 35.9 13.3 38.1 14.3 1.1.4 8.8 3.4 17 6.5 8.3 3.1 16 6.1 17.3 6.6 1.3.5 13.2 3.6 26.5 6.9 15.2 3.9 24.7 6.7 25.7 7.8.9.9 7.5 9.1 14.8 18.2 7.2 9.1 13.6 17.1 14.2 17.8 14.6 17 13.2 14.1 20.4 42.7l2.3 9 3.4-.1c3.3-.1 10.8-.9 15.9-1.8 2.6-.5 15.8-2.4 22-3.2 1.9-.3 4.6-.7 6-.9 1.4-.3 4.3-.7 6.5-1.1 2.2-.3 5-.7 6.2-.9 1.2-.2 2.8.2 3.6.8 1.2 1 8.9 11.6 14.7 20.4.8 1.2 9.3 13.3 18.9 26.8 18.7 26.4 17 24.7 33.1 33.7 1.9 1.1 5.8 3.4 8.7 5.1l5.1 3.1 3.6 14c3.9 15.1 3.8 14.7 5.6 21.9.7 2.6 1.1 5 .8 5.2-1.9 2-50.7 29.7-52.3 29.8-1.1 0-4.5-.3-7.5-.7-3-.4-6.8-.9-8.5-1-2.8-.3-11.3-1.3-18-2.1-1.6-.2-5.7-.7-9-1-3.3-.3-7.2-.8-8.7-1.1-1.4-.3-4.4-.7-6.6-.9-4.2-.4-3.9-.1-23.7-21-1.6-1.8-9.3-9.8-17-17.9-13.2-13.9-14-15-14.5-19.4-.6-5.3-.1-9.2 1-9.2.4 0 7-3 14.6-6.7 7.7-3.6 14.4-6.6 14.9-6.6.6 0 5.2 1.6 10.3 3.6 11.9 4.8 23 9.1 42.7 16.6 8.8 3.4 16.8 6.6 17.7 7.1 1 .6 2.5 1 3.3 1 2.5 0 1.8 1.7-5.2 13.1-6.7 10.8-6.8 10.9-13.3 12.4-.3.1-2.5.5-5 1s-4.8 1-5.2 1.1c-.5.1-1.5.2-2.5.3-.9 0-1.3.4-.9.8s4.1.8 8.4.9c4.2.1 11.5.3 16.1.4l8.3.3 6.9-5.3c3.8-2.8 7.1-6.2 7.4-7.4 1.8-8.3 4.6-24.8 4.3-25.1-.9-1-10.2-4.5-11.7-4.5-.9 0-2.1-.4-2.6-.8-.6-.5-4.6-2.1-9-3.7-4.4-1.5-9.1-3.3-10.5-3.8-1.4-.6-2.7-1.1-3-1.1-.3-.1-1.8-.6-3.5-1.3-6.3-2.3-14.4-5.3-25.5-9.3-6.3-2.2-12.2-4.3-13-4.7-.8-.3-1.9-.7-2.5-.9-.5-.2-5.2-1.8-10.3-3.6l-9.2-3.3-16.8 8.6-16.7 8.5.1 6c.1 3.2.3 8.6.4 12 .3 6.5-.3 5.4 10.9 18 2 2.2 5.4 6.2 7.6 8.9 2.2 2.6 5.2 6 6.6 7.6 1.4 1.5 4.8 5.4 7.5 8.5 5.5 6.3 5.6 6.5 13.9 16 5.2 6 9.2 10.4 15.7 17.7 1.8 2.1 2.4 2.2 29.8 3.2 8.5.3 19.8.8 25.1 1 8.9.5 10.5.2 21.5-3 11.6-3.5 14.8-4.5 18.9-6.1 2.4-.9 2.2-.8 6.2-1.8 3-.7 5.6-3.2 13.5-12.8 3.8-4.5 6.6-7.9 9.1-10.8 7-7.9 6.7-7 6.3-21.6-.5-13.2 0-15.7 2.7-13.6.7.5 5.3 3 10.2 5.7 10.4 5.5 11.7 6.6 12 9.7.2 1.3.5 5.7.9 9.8.3 4.1.9 10.2 1.2 13.5.9 7.7.9 9.7 0 17.5-.5 3.6-.9 7.6-1.1 9-.1 1.4-.6 4.9-1 7.8-.4 2.9-.8 6.9-1 9-.8 8.1-1.5 14.9-2.2 19.7-.4 2.7-.7 5.7-.8 6.5-.1.8-.7 7-1.5 13.8-1.6 14.6 0 15.8-14.6-10.9l-3.7-6.6-7.1-.3c-16.1-.6-20.5-.5-37.1 1.5-10.9 1.3-13.6 1.6-18.5 2-3 .3-7.3.7-9.5 1-2.2.2-6.2.7-9 1-2.7.3-7 .7-9.5 1-2.5.3-7.2.7-10.5 1.1-3.3.3-7.1.7-8.5.9-1.4.2-5.2.6-8.5 1-3.3.3-8 .8-10.5 1.1-2.5.2-7 .7-10 1-3 .3-5.6.6-5.7.8-.3.3-.9 6.1-1.7 18.6-.6 9-1.6 22.6-2.1 29.5-.8 10.7-1.5 20.4-2.1 29.5-.3 5.2-.7 10.8-.9 12.5-.1 1.6-.3 5.4-.4 8.3-.1 6.3-1.4 6.1-3-.5-.7-2.7-1.9-6.4-2.6-8.3-1.1-2.9-3.6-11.1-4-13 0-.3-1.1-3.5-2.3-7.2-2.4-7.4-2.8-9.8-3.7-23.8-.8-12.4-1.9-27.4-3.1-42.5-.3-4.4-.6-9-.5-10.2.1-1.9-1.4-2.6-12-5.9-8.4-2.7-13.5-4.9-16.5-7.3-2.5-1.9-4.7-3.1-5.1-2.8-.3.4-1.2 4.6-2 9.4-.7 4.9-1.5 9.9-1.7 11.3-.2 1.4-.7 4.7-1.1 7.5-.3 2.7-.9 6.1-1.1 7.5-.3 1.4-.7 3.8-.8 5.5-.4 3.7-1.7 12.3-2.2 15-2.4 12.5-2.4 16.5.1 30.5 2.3 13.1 4.7 27.1 5 30 .3 1.9.8 4.6 1.1 6 .3 1.4.7 3.7.9 5.2.2 1.5 1.3 7.8 2.4 14 2.1 11.9 3.1 17.6 3.7 21.9.2 1.5.8 4.5 1.3 6.9 2 8.9-.9 1.7-7.8-19.5-4-12.1-7.6-22.9-8.1-24-.4-1.1-2.2-6.5-4-12-1.7-5.5-3.6-10.9-4-12-.5-1.1-2-5.5-3.4-9.8-2.4-7.4-2.5-8.9-2.1-23.5.4-15.6 1.3-41.4 2-58.7 1-25.4.8-28.4-2.9-46.5-2-9.6-4.5-22-5.6-27.5-1-5.5-2.6-13.4-3.5-17.5-.9-4.1-1.8-8.4-1.9-9.5-.2-1.1-.6-2.9-.9-4-.4-1.1-.9-3.4-1.1-5-.3-2.4-2.2-12-4-21-1.2-5.6-.5-5.5-14.4-1.5-18.5 5.4-18.1 5.3-18.9 3.3-.4-.9-2.3-4.4-4.3-7.8-2-3.3-5.2-8.7-7-12-1.8-3.3-4.3-7.5-5.5-9.3l-2.3-3.3-3.3 2.8c-1.9 1.6-4.5 3.6-5.9 4.6-1.4.9-3.9 2.8-5.6 4.2l-3.1 2.5-4.8-14.8c-2.6-8.1-5.1-15.1-5.5-15.5-.7-.8-8.7 3.1-12 5.8-.8.6-5.5 3.5-10.5 6.4-4.9 2.9-13 7.7-18 10.7l-9 5.6-11 .3c-32.7 1.1-56.2 1.8-58 1.7-1.4-.1-29.6-13.4-33.3-15.8-.2-.1 2.8-7.1 6.6-15.5l7-15.2 15.9-8.9c8.7-4.9 18.7-10.5 22.3-12.5 3.6-2 11.9-6.6 18.5-10.3 13.8-7.7 24.7-13.7 29-15.9 1.6-.9 3.2-1.9 3.5-2.2.3-.4 3.2-2 6.5-3.8 3.3-1.7 8-4.2 10.5-5.7 2.5-1.4 6.8-3.8 9.5-5.4 7-3.8 65.3-20.3 69.7-19.7 6.7 1 19.4 3.8 21.6 4.8 1.9.8 9.3 6 11.2 7.9.3.3 4.9 3.8 10.3 7.8 5.3 4.1 9.7 7.7 9.8 8 .1.8.6 9.7.9 18.5.2 3.1.1 5.9-.1 6.1-.2.2-2.2.6-4.4.9-2.2.3-4.7.8-5.5 1.1-.8.3-3.2.7-5.2 1-2.1.3-5.9 1.1-8.5 1.7-2.7.6-6.4 1.3-8.3 1.5-1.9.3-6.3 1.1-9.8 1.9-8.5 2-10.1 1.9-11.2-.8-.5-1.2-2.4-6-4.3-10.5l-3.5-8.4 3.7-5.4c2-2.9 3.8-5.3 4.1-5.4.3 0 4.7 2.5 9.8 5.5 5.1 3 9.5 5.5 9.7 5.5.4 0-.5-3-3.4-11.6l-2.2-6-7.2-1.9c-4-1.1-7.6-2-8.2-2.2-.5-.1-1.9-.5-3.1-.8-2.1-.7-3.7.8-8.9 8-1.1 1.6-2.5 3.3-3.1 3.9-1.7 1.8-1.2 23 .6 24.8.8.8 4.4 4.8 8 8.8 3.6 4 8.3 9.2 10.5 11.6l4 4.4 8.5-2.1c4.7-1.1 9-2.2 9.5-2.3.6-.1 8.1-1.9 16.7-4.1l15.6-3.8 6-5.7 5.9-5.7-1.4-8.4c-.7-4.6-1.8-11.1-2.3-14.4-.6-3.3-1.2-7.1-1.4-8.5-.1-1.4-.4-2.8-.4-3.2-.1-.4-5.9-5.3-12.9-11-7.1-5.6-13-10.4-13.3-10.7-.3-.4-3-2.5-6-4.7-4.6-3.5-10.1-6.1-14.5-7-.5-.1-4.1-1.2-7.8-2.4-7.7-2.5-6.8-2.6-30.2 2.1-5.5 1.1-11.1 2.2-12.5 2.5-1.4.2-4.5.9-7 1.4-2.5.5-5.8 1.2-7.4 1.5-1.6.2-5.4.9-8.5 1.6-3 .6-6.4 1.2-7.5 1.4-10.2 1.4-8.8.8-47.6 23.8-7.4 4.4-15.7 9.3-18.5 10.9-2.7 1.6-6.8 4-9 5.4-2.2 1.3-5.8 3.4-8 4.6-2.2 1.2-4.8 2.7-5.7 3.3-2 1.2-37.1 22.1-41 24.4-1.6.9-3 2.8-3.4 4.6-.4 1.6-1.6 5.7-2.6 9-1.1 3.3-2.1 6.4-2.2 7-.1.5-.7 2.6-1.4 4.5-.6 1.9-1.3 4.6-1.6 6-.3 1.4-1.6 6-2.9 10.2l-2.5 7.7 4.2 2.4c2.2 1.4 6.6 3.7 9.6 5.2s5.8 3.3 6.2 3.9c.4.6.8.8.8.5 0-.4 5.2 2.2 11.5 5.6l11.5 6.2 35.3-.2 35.2-.2 13.5-6.5c7.4-3.6 15.5-7.5 18-8.7 2.5-1.3 6.4-3.1 8.7-4.1l4.1-1.9.1 17.2v18.9c.1 1.5.9 1.3 5.4-1.4 2.8-1.7 6.2-3.6 7.4-4.2 1.3-.6 2.3-1.4 2.3-1.9 0-.4.4-.7.9-.7s4.2-2 8.2-4.4l7.3-4.4 5.4 9.1c6.9 11.6 7.4 12.2 11.4 12.5 1.8.2 4.2.4 5.3.7 1.1.2 3 .4 4.1.4 1.6.1 2.4 1.1 3.2 3.8 1 3.8 7.2 25.3 9.4 32.8.6 2.2 1.2 4.4 1.4 5 .1.5.7 3 1.5 5.5.7 2.5 1.4 4.9 1.5 5.5.2.5 1 3.4 1.8 6.2 4.7 15.9 4.9 16.5 7.1 24.8.9 3.3 2.2 7.8 3 10.1 1.3 3.9 1.6 19.9 1.6 96.9l.1 22 3.4 11c2 6 3.9 11.9 4.4 13 .5 1.1 3.4 9.9 6.5 19.5s6 18.2 6.3 19c.3.8.6 1.9.8 2.5.8 2.7 11.6 34.3 12.5 36.6.7 1.7 2 2.9 3.7 3.2 1.5.3 6.2 1.4 10.5 2.5 5.2 1.3 7.7 1.6 7.8.8.4-6.1-.8-51.7-1.6-57.6-.6-4.7-1.1-10.5-2-22.5-.3-3.9-.8-9-1-11.5-.3-2.5-.7-7.4-1-11-.3-3.6-.7-8.3-.9-10.5-.3-2.2-.7-7.6-1-12-.4-4.4-.8-9.6-1.1-11.5-.2-1.9-.7-7.1-1-11.5-.4-4.4-.8-9.6-1-11.5-1-11.2-1.7-19.9-1.9-22.5l-.1-3 8.7.1c4.8 0 9 .3 9.3.6.6.6.9 4.4 2 26.3.3 6.6.8 15.4 1 19.5.3 4.1.8 12.2 1 18 .5 11.9 1.2 20.3 2 24 .6 2.9 1.6 8.6 2 11.5.2 1.9 5.1 31.1 6.1 36.5.2 1.4.7 4.1.9 6 .3 1.9.8 4.4 1 5.6.3 1.2.7 3.9 1 6 .4 2.1.8 5 1.1 6.4.2 1.4.7 4.1.9 6 .3 1.9.8 4.4 1 5.6.3 1.2.7 3.9 1.1 6 .3 2.1.9 5.5 1.3 7.4l.7 3.5 10.2.3 10.2.3.1-5.3c.1-2.9.3-9.4.4-14.3.2-5 .6-19.4.9-32 .4-12.7.8-29.8 1.1-38 .6-17.4 1.1-36.8 2-69 .4-15.7 1-23.4 1.8-24.2.7-.6 3.9-1.4 7.2-1.7 3.3-.3 7.6-.8 9.5-1 5.8-.8 10.1-1.4 19-2.6 4.7-.6 9.9-1.2 11.5-1.5 1.7-.2 5.3-.7 8-1 2.8-.3 6.8-.9 9-1.2 2.2-.3 5.1-.6 6.5-.8 1.4-.1 5-.6 8-1 13-1.6 11.8-1.8 11.5 1.8-.2 1.7-.7 7.2-1 12.2-.4 4.9-.9 10.3-1 12-.3 3.6-1.4 17.5-2.1 26.5-.2 3.6-.7 8.1-.9 10-.2 1.9-.7 7.8-1.1 13-.3 5.2-.7 11.1-.9 13-.2 1.9-.7 7.1-1 11.5-.3 4.4-.7 10-1 12.5-2.5 26.8-2.5 42.6.1 56.5.3 1.7.7 4.8.9 7 .8 9.9 1.8 17.1 2.6 17.9.4.5 2.3 1 4.1 1.1 1.8.2 4.7.4 6.3.5 4.4.3 5.2.1 5.2-1.3 0-1.2 1.2-11.1 1.8-15.7.2-1.4.6-5.2 1-8.5.3-3.3.8-7.6 1.1-9.6.2-2 .7-5.6.9-8 .2-2.4.7-6 1-7.9.3-1.9.8-6.2 1.1-9.5.3-3.3.7-7.1.9-8.5.2-1.4.7-5.1 1-8.3.4-3.2.8-6.7 1-7.8.2-1.1.7-5.1 1-8.9.3-3.8.8-7.9 1-9.1.2-1.1.7-4.8 1.1-8.2.3-3.4.8-7.3.9-8.7.2-1.4.6-4.9 1-7.9.3-3 .8-7 1-9 .3-2 .7-5.6 1-8.1.3-2.4.8-6.7 1-9.5.4-4.5.8-7.6 2-15.5.2-1.4.7-5.7 1-9.5.8-9.1 1.2-10.4 3.3-10.1 1.9.3 2 4.8.8 24.6-.8 13-1.4 23.6-2.1 36.5-.6 9.8-.9 15.6-2 34-.3 4.9-.7 12.4-.9 16.5-.2 4.1-.7 12-1.1 17.6-.3 5.5-.8 13.1-1 17-.2 3.8-.6 11.8-1 17.7-1.1 17.8-1.3 23.7-.6 24.1.3.2 2 .1 3.8-.1 3.2-.5 3.9-1.4 4.8-6.3.2-1.2.7-3 1-4 .3-1 .7-2.7 1-3.7 1-5.1 5.8-25.4 7.1-29.8 1.2-4.3 7-28 7.9-32.5.2-.8 2.1-8.8 4.4-17.6 2.2-8.9 4.2-17.2 4.5-18.5.3-1.3 1.9-8 3.6-14.9 4.2-16.5 5-20.1 5.5-22.5.2-1.1.4-2.1.5-2.3.3-.2.3-.5 1.4-5.7 1.2-6 1.4-7.5 2.1-14 .3-3.3.7-7.4 1-9 .8-5 1.6-10.8 2-15 .8-7.1 1.7-13.9 2.1-15.9.2-1.1.6-4.4 1-7.5.8-7.7 1-9.8 1.9-16.1.4-3 .9-6.6 1-8 .2-1.4.7-5 1.1-8 1.3-8.9.6-37.3-1.2-53.5-.3-2.8-.7-6.3-.7-8-.2-3.1-3-4.5-43.7-21.9-10.9-4.6-22.8-9.8-24.5-10.6-1.1-.5-5.1-2.3-9-3.9-6.8-2.8-7.3-3.3-16.2-14.7-5.1-6.6-9.6-12.4-10.1-12.9-.4-.6-4.1-5.5-8.2-11s-7.7-10.2-8-10.5c-.3-.3-5.3-6.7-11-14.3-5.8-7.6-11-14.5-11.6-15.2-.7-.9-9-2.7-22.5-5-11.8-2-22.5-3.8-23.8-4-1.3-.2-4.4-.7-6.8-1.1-3.5-.5-5-1.5-8.1-5.1-2-2.5-4.2-5-4.7-5.6-.6-.7-4.4-5.5-8.5-10.7-4.1-5.2-8.1-10.1-8.8-10.9-2.4-2.5 1.2-3.4 8.4-1.9 2.7.5 5.8 1.1 6.9 1.3 1.1.2 4.5.9 7.5 1.5s6.9 1.4 8.5 1.7c1.7.2 7.1 1.3 12 2.3 5 1 9.7 1.8 10.5 1.8.8.1 3.1.5 5 1 3.5.9 45.8.8 49.5-.1 5.4-1.4 33.3-7.6 35.5-8 1.4-.3 4.5-1 7-1.7s5.4-1.3 6.5-1.4c5.2-.6 16.6-3.9 15.8-4.6-2.1-2.1-21.6-10-23.6-9.6-14.9 2.8-20.5 3.9-21.9 4.2-4.9 1.1-6.5 1.4-10 1.9-2.1.3-3.8.2-3.8-.2s3.2-3.1 7.1-5.8c3.9-2.8 8.1-5.7 9.2-6.5 1.2-.8 8.6-6.3 16.5-12.3 7.9-5.9 14.7-10.7 15.2-10.7s1-.3 1.2-.8c.2-.4 3.7-3.2 7.8-6.2s8-5.8 8.5-6.3c7.4-5.6 9.2-7 10.4-7.7.9-.5 1.6-3 1.8-7.1.2-3.5.5-7 .8-7.7.2-.6.2-1.2 0-1.2-.4 0-27.8 17.7-32.7 21.1-1.5 1-3.1 1.9-3.7 1.9-.5 0-1.1.3-1.3.8-.1.4-2.8 2.3-5.8 4.2-3 1.9-5.7 3.7-6 4.1-.3.3-1.6 1.2-3 1.9s-7.8 4.9-14.4 9.2c-6.5 4.3-11.9 7.8-12 7.8-.1 0-7.4 4.7-16.1 10.5-16.9 11.1-15.6 10.6-25 9-7.7-1.3-7.7-1.3-7-5.2.3-1.9.8-6 1.1-9 .3-3 .9-6.5 1.4-7.9.6-1.5.6-2.4 0-2.4s-.6-.9-.1-2.3c.5-1.3 1.2-4.8 1.5-7.8.3-3 .8-6.5 1-7.9.3-1.4.7-4.8 1-7.5.3-2.8.8-6.1 1-7.5.3-1.4.7-5.2 1.1-8.5.4-3.2.9-6.3 1.1-6.7 1.1-1.7-1.7-.7-6.3 2.4-2.6 1.7-4.9 3.2-5 3.2-.1.1-1 5.3-2.2 11.6-1.1 6.3-2.3 12.8-2.6 14.5-.3 1.6-.8 4.6-1.1 6.5-.3 1.9-.7 4.6-1 6-.3 1.4-.6 3.4-.8 4.5-1.1 7.2-1.9 10.4-2.4 10.4-.4-.1-.9 0-1.2.1-.3.1-1.2.3-2 .5-.8.1-6 1.5-11.5 2.9-5.5 1.5-10.7 2.8-11.6 3.1-.9.2-3.4.8-5.5 1.4-2.1.6-4 .9-4.2.6-.2-.2-.4-3-.4-6.2.3-29.5.2-76.6-.1-76.9-.5-.5-4.2 1.4-7.4 3.7-2.1 1.4-2.2 2.4-2.7 20.5-1.1 38.5-1.7 55.9-2 56.1-.3.3-7.3-2.3-18.1-6.6-4.4-1.8-9-3.6-10.2-4.1-2-.8-2.1-1.5-1.8-7.7.4-6.8 1.4-31.2 2-47.3.1-4.7.4-12 .5-16.3l.3-7.8-4.9-5c-2.6-2.7-5.1-4.9-5.4-4.9-.3 0-.6 1.7-.6 3.7 0 2.1-.4 8.1-.9 13.3-.4 5.2-.9 11.1-1 13-.8 11.9-1.7 23-2 26.2-.2 2.1-.7 8.4-1 14-.3 5.5-.8 10.5-1.1 11-.3.5-1.8.7-3.2.4-1.5-.3-4.5-.8-6.7-1.1-2.2-.3-4.9-.7-6-.9-1.1-.3-2.7-.5-3.7-.5-1.2-.1-1.9-1.8-2.8-7.4-.7-3.9-1.4-8.1-1.7-9.2-.2-1.1-.6-3.4-.8-5-.3-1.7-.7-4.1-1-5.5-.2-1.4-.7-3.6-1-5-.2-1.4-.7-4.1-1-6-.3-1.9-1.1-6.2-1.7-9.5-.6-3.3-1.2-6.9-1.3-8-.3-1.9-.9-5.3-1.9-10-.2-1.1-.9-5.5-1.6-9.8-.7-4.3-1.7-8-2.3-8.4-.5-.3-2.7-.8-4.9-1-3.7-.3-3.8-.2-3.3 2.5.2 1.5 1.1 7.4 2 13.2.9 5.8 1.8 11.6 2 13 .2 1.4.7 4.7 1.1 7.5.3 2.7.8 5.9 1 7 .2 1.1.7 4 1 6.5.8 6.5 1.6 11.7 3 19.5.2 1.1.6 4.3.9 7.2l.6 5.2-4-1.6c-2.3-.9-4.1-2-4.1-2.5s-.3-.7-.7-.5c-.5.2-6.6-2.6-13.8-6.2l-13-6.6-1.2-5c-.7-2.8-1.5-6.7-1.7-8.8-.3-2-.7-4-.9-4.5-.3-.4-.8-2.5-1.1-4.7-.4-2.2-.8-4.7-1.1-5.5-.2-.8-.6-2.6-.9-4-.3-1.4-1-5-1.6-8-1.2-5.8-1.7-8.5-2.4-12.3-.2-1.2-.7-2.9-1-3.7-.3-.8-.7-3.2-1-5.2-.6-4-2.3-12.2-3.2-15.1-.7-2.4-2.2-2.1-7.6 1.6z"/></svg>