<svg xmlns="http://www.w3.org/2000/svg" width="230" height="255">
    <path fill="#231f20" d="M66.667 55.853L96 50.187l9.333 3 14 11.16 2.174 13.506-4.667 4.334-19 4.666-9.16-10.173v-8.16l4-5.333 8 2.16 2.333 6.826-7.666-4.506-3 4.333 3.506 8.16 19.84-3.84-.493-9.667-11.693-8.8-9.507-2-23.493 6.667-46 25.667-5.334 11.666 12.334 6.16 26.666-.84 18.84-11.333 4 12 7-5.333 7.507 13 11.84-3.334 8.333 41.494L114.36 190l12 36-7-40.84 4.173-27.84 3.84 2.827 9 2.826 1.84 26.667 5.334 17.16 2.84-40.333 46.666-5 8.507.493 6.333 11.493 3.84-33.173-1.333-13.667-9.493-5.173.333 11-9.667 11.493-15.24 4.92-24.333-1-24.16-27.666-.507-9 13-6.667 38.507 14-2 10.333-5.16 4.16-14-.506 9-1.84 5.507-8.84-29.16-11.334-11.667 5.667.173 4.667 19.507 20.493 24.173 2.827 19.667-11.507-4-15.667-11.213-6.453L160 82.68l-23.827 3.507-3.666-13.667-16.667-20.667-17.667-4.333-52.506-19.84v-2.333l6.506.84 33.494 12.666-6.827-27 4.667-3.173 6.333 30.493 13.667 6.667-4.667-31.333 3.507.333 5.666 32 8.174 1.16 2.333-31.507 4 4-1.187 29.854L133 55.013l.84-29 3.84-2.173-.16 32.16 14.173-3.667L155.2 32.16l4.333-2.667-3.693 27.694 6.16 1.16 42.333-27.494L204 36.52l-30.493 22.493 15.506-3 8.84 4-26.826 6-15.667.16-22.493-4.333-2.334.16 10.334 12.827 21.666 3.666 22.174 29.16 32.333 14 1.333 19.667-5 39.667-14.826 60.666-3 .334 4.173-71.667H198l-8.493 72.333-6-.506-2.16-18.667 4.506-56-34.826 4.493-2 69.827-7.827-.333-6.827-40.84-1.666-31-7.16-.174 4.666 53.334.334 17.666-8.16-2-13.16-39.173-.16-43.84L98.4 118.107l-6-.84-4.827-8-12 7.16V101.92l-17 8.16-26.666.16-16.667-9 5.333-18.173z"/>
</svg>
